<?xml version="1.0" encoding="utf-8"?>
<!-- Generator: Adobe Illustrator 16.0.0, SVG Export Plug-In . SVG Version: 6.00 Build 0)  -->
<!DOCTYPE svg PUBLIC "-//W3C//DTD SVG 1.1//EN" "http://www.w3.org/Graphics/SVG/1.1/DTD/svg11.dtd">
<svg version="1.1" id="for_light" xmlns="http://www.w3.org/2000/svg" xmlns:xlink="http://www.w3.org/1999/xlink" x="0px" y="0px"
	 width="110.438px" height="110.438px" viewBox="0 0 130.438 130.438" enable-background="new 0 0 130.438 130.438"
	 xml:space="preserve">
<g>
	<path fill="#202020" d="M102.443,7.082c0,0-6.541,14.37-9.709,22.876c-3.168,8.506-6.697,24.103-6.697,24.103L65.218,84.554
		L48,64.284l-29.957,60.774l26.093-92.523l21.082,28.929L102.443,7.082z"/>
	<g>
		<path fill="#202020" d="M104.908,58.189c-4.462-9.586-6.275-13.609-5.887-22.288c0.41-9.15,5.104-28.819,5.104-28.819
			s-6.491,14.505-9.619,22.876c-3.177,8.506-6.697,24.104-6.697,24.104s0.741,1.952,1.141,2.915
			c0.816,1.973,1.695,3.857,2.516,5.345c2.293,4.153,7.844,12.052,6.056,22.911c-2.147,13.039-14.566,32.925-14.745,33.217
			c0.271-0.208,21.086-14.459,25.971-30.604C111.419,79.011,109.371,67.774,104.908,58.189z"/>
	</g>
</g>
</svg>
